<svg width="24" height="24" viewBox="0 0 24 24" fill="none" xmlns="http://www.w3.org/2000/svg">
<g clip-path="url(#clip0_14_256)">
<path d="M21.129 2.871C20.406 2.148 19.4895 1.68975 18.4792 1.54575C17.0085 1.33725 15.558 1.821 14.5087 2.871C14.2155 3.16425 14.2155 3.639 14.5087 3.93225C14.5245 3.948 14.5448 3.95325 14.5613 3.96675C14.5748 3.9825 14.58 4.00275 14.5958 4.0185L16.7587 6.1815L5.58675 17.3535L3.867 15.6338L13.3447 6.156C13.638 5.86275 13.638 5.38875 13.3447 5.0955C13.0515 4.80225 12.5775 4.80225 12.2842 5.0955L2.27775 15.102C2.277 15.1028 2.27625 15.1028 2.2755 15.1035L1.719 15.66C1.6485 15.7305 1.59375 15.8145 1.55625 15.9053C1.5195 15.9968 1.5 16.0935 1.5 16.1903V21.75C1.5 22.1648 1.836 22.5 2.25 22.5H7.8105C8.00925 22.5 8.2005 22.4213 8.34075 22.2803L21.129 9.492C22.9538 7.6665 22.9538 4.6965 21.129 2.871ZM18.2685 3.0315C18.954 3.129 19.5765 3.44025 20.0677 3.9315C21.1245 4.989 21.2723 6.60675 20.5283 7.83075L18.3488 5.6505L16.1617 3.4635C16.785 3.08175 17.5222 2.92575 18.2685 3.0315ZM3 21V16.8885L5.055 18.9435C5.05575 18.9443 5.05575 18.945 5.05575 18.945L5.05725 18.9458L7.1115 21H3ZM6.64725 18.414L17.8185 7.242L19.5383 8.96175L8.36625 20.1338L6.64725 18.414Z" fill="black"/>
</g>
<defs>
<clipPath id="clip0_14_256">
<rect width="24" height="24" fill="white"/>
</clipPath>
</defs>
</svg>
